<?xml version="1.0" standalone="no"?><!DOCTYPE svg PUBLIC "-//W3C//DTD SVG 1.1//EN" "http://www.w3.org/Graphics/SVG/1.1/DTD/svg11.dtd"><svg class="icon" height="512" viewBox="0 0 1024 1024" version="1.1" xmlns="http://www.w3.org/2000/svg"><path d="M203.789894 343.052147c44.165896 0 80.124875-34.546817 80.124875-76.995605l0-20.834514c0-42.460044-35.95898-77.017094-80.124875-77.017094-44.187385 0-80.145341 34.55705-80.145341 77.017094l0 20.834514C123.644553 308.505329 159.602509 343.052147 203.789894 343.052147zM147.901003 244.226351c0-28.928866 25.071002-52.475142 55.909357-52.475142 30.819936 0 55.909357 23.547299 55.909357 52.475142l0 22.845311c0 28.939099-25.090445 52.485375-55.909357 52.485375-30.838356 0-55.909357-23.546276-55.909357-52.485375L147.901003 244.226351zM944.143743 408.544767l0 166.831656-31.733749 0L912.409994 434.864202c0-40.164768-30.085202-67.682495-70.270437-67.682495l-58.285474 0c-3.028986 0-5.993504 0.944512-8.452509 2.692319l-98.204649 59.57484-68.179822 0c-6.206352 0-11.388375 4.013407-13.46057 9.621125l-25.962302-88.76465c-0.6191-2.133593-2.8847-3.372817-5.01727-2.742461l-0.214894 0.061398c-2.13257 0.629333-3.371794 2.8847-2.742461 5.018294l22.267143 76.112492c-0.467651-0.188288-0.9967-0.213871-1.483794 0.00921l-19.126616 8.969279c-0.629333 0.290619-0.893346 0.899486-0.955768 1.544169-0.49528 0.472767-0.831948 1.11745-0.831948 1.859347l0 50.077535-26.218128 0c-1.524726 0-2.774183 1.25969-2.774183 2.783393l0 0.162706c0 1.523703 1.249457 2.77316 2.774183 2.77316l60.297294 0c1.523703 0 2.77316-1.249457 2.77316-2.77316l0-0.162706c0-1.523703-1.249457-2.783393-2.77316-2.783393l-28.767184 0 0-50.077535c0-0.25378-0.202615-0.421602-0.274246-0.655939l17.511839-8.213056c0.325411-0.147356 0.477884-0.451278 0.661056-0.725524l8.105608 27.694759c0.264013 0.918929 0.873903 1.626034 1.6158 2.13257 0.924045 14.97711 4.692882 35.725666 16.902972 51.1561l-202.782449 0.288572c0.711198-0.711198 1.473561-1.335415 2.164293-2.108011 3.585665-4.02364 6.450922-8.523117 8.847505-13.214976l97.150644 0c2.071172 0 3.746324-1.686409 3.746324-3.759627 0-2.071172-1.675152-3.747347-3.746324-3.747347l-9.579169 0 51.591005-91.12644c0.721431-1.279133 0.275269-2.905166-1.004887-3.63683-1.279133-0.710175-2.90619-0.264013-3.626597 1.016143l-53.074799 93.746104L422.915567 489.983567c9.242502-24.130583 6.774287-50.738591 6.601348-52.02898-0.831948-7.343245-7.070023-12.899798-14.464433-12.899798l-68.179822 0-98.205673-59.576887c-2.456958-1.746784-5.424546-2.690272-8.451486-2.690272l-58.285474 0c-40.185234 0-70.273507 27.517727-70.273507 67.681472l0 140.512221-31.732725 0L79.923796 404.151713 60.178079 404.151713l0 215.752856c0 72.304769 50.241264 127.724986 122.564453 127.724986l1.523703 0 0.335644 59.839877-23.27203 23.292496-49.835012 0 0 20.642133 55.848982 0c3.880377 0 7.577582-1.534959 10.31902-4.279467l18.833951-18.84316 18.85237 18.84316c2.743484 2.744507 6.420223 4.279467 10.299577 4.279467l62.715367 0 0-20.642133-56.68093 0-24.866341-24.886807c-0.405229-0.402159-0.924045-0.553609-1.362021-0.899486l0-57.345056 83.131349 0 0-20.621667L181.931051 727.008912c-56.233746 0-102.006232-50.869574-102.006232-107.10332l0-28.380374 31.773657 0c0.396019 55.799864 43.414789 93.574189 99.364055 93.574189l95.139847-0.853437 83.294055 160.351058 95.504144 0.203638-6.674003-17.847483L410.155962 620.157325c-12.270465-35.014468-45.426609-49.690726-82.522482-49.690726l-60.052724 0 0-58.210773 17.958 11.259438 0 44.328601 447.269743 0 0-36.476773c0.276293-0.155543 0.579191-0.228197 0.843204-0.402159l22.835078-14.316054 0 58.208726-60.054771 0c-37.08564 0-70.250994 14.678304-82.521458 49.692772l-70.456678 213.730803 0.021489 0.004093-3.169179 8.462742 95.503121-0.201591 82.055854-157.909449 95.138824 0.851391c55.949266 0 98.968036-37.770232 99.364055-93.572142l31.773657 0 0 28.380374c0 56.233746-45.771463 107.10332-102.004185 107.10332L735.492632 731.399919l0 20.621667 83.121116 0 0 57.351196c-0.426719 0.343831-0.954745 0.497327-1.350764 0.893346l-24.866341 24.886807-56.69014 0 0 20.640086 62.714344 0c3.880377 0 7.568373-1.532913 10.308787-4.275373l18.84316-18.84316 18.831904 18.84316c2.744507 2.742461 6.441713 4.275373 10.321066 4.275373l55.847959 0L912.573723 835.153958l-49.835012 0-23.271006-23.292496 0.335644-59.839877 1.52268 0c72.325235 0 122.573663-55.422264 122.573663-127.724986L963.899692 408.544767 944.143743 408.544767zM219.148697 451.933973 202.976366 471.742111l43.678802 27.390837 0 78.005608c0 8.024767 6.54302 14.556531 14.56574 14.556531l66.411549 0c24.724101 0 52.253084 13.745049 60.338227 36.843116l67.000973 198.281949-47.669696 0-81.435731-154.764829c-2.559289-4.692882-7.455809-7.599072-12.799514-7.599072L205.049584 664.456251c-39.900755 0-72.395844-33.093722-72.811306-72.932056l50.483788 0 24.826432 32.565696 15.642259-12.269441-29.15297-34.356482c-2.682086-4.041036-7.231705-6.479575-12.107759-6.479575l-49.732681 0L132.197346 420.494936c6.033413-25.810852 25.637913-36.861536 49.732681-36.861536l53.634548 0 98.16474 59.839877c2.477424 1.777483 5.443989 2.711761 8.491395 2.711761l67.712171 0c-0.782829 9.249665-3.321652 34.039257-10.848069 43.99398-1.494027 0.401136-2.600221 1.655709-2.743484 3.244904-7.109931 7.441483-16.983813 14.846126-30.209022 14.846126l-53.855582 0L219.148697 451.933973zM712.006731 547.041074 306.343595 547.041074l0-13.808494 351.735923-0.069585c2.987031 0.165776 6.042623 0.261966 9.213849 0.261966l44.713364 0L712.006731 547.041074zM891.872239 575.376423l-49.732681 0c-4.878101 0-9.417487 2.438539-12.108782 6.481621l-29.151947 34.354436 15.653515 12.269441 24.814152-32.565696 50.485835 0c-0.417509 39.839357-32.912597 72.934103-72.812329 72.934103L711.002868 668.850327c-5.344728 0-10.240225 2.904143-12.789281 7.597025L618.046756 828.768527l-48.116881 0 66.166979-195.83727c8.086166-23.100114 35.614126-36.84107 60.337203-36.84107l66.412572 0c8.035 0 14.56574-6.53381 14.56574-14.558577l0-78.006632 43.678802-27.390837-16.171308-19.808138-93.116771 56.335053-2.854001 0 0-0.274246-53.634548 0.075725c-13.09218-1.00591-22.793122-9.171893-29.559223-16.745383-8.15575-9.16166-10.80816-35.561937-11.610432-45.140083l67.701938 0c3.048429 0 6.012947-0.934279 8.491395-2.711761l98.175997-59.8409 53.623291 0c24.103978 0 43.699268 11.051707 49.732681 36.862559L891.870192 575.376423zM820.289923 347.446223c44.175105 0 80.134085-34.547841 80.134085-76.997652l0-20.833491c0-42.460044-35.95898-77.017094-80.134085-77.017094-44.178175 0-80.136132 34.55705-80.136132 77.017094l0 20.833491C740.154815 312.898383 776.112772 347.446223 820.289923 347.446223zM764.35089 248.620427c0-28.92989 25.090445-52.475142 55.908334-52.475142 30.839379 0 55.909357 23.545252 55.909357 52.475142l0 22.845311c0 28.939099-25.069979 52.485375-55.909357 52.485375-30.817889 0-55.908334-23.546276-55.908334-52.485375L764.35089 248.620427z" /></svg>